<?xml version="1.0" encoding="UTF-8" standalone="no"?>
<svg
   width="662"
   height="662"
   viewBox="0 0 662.00001 662"
   version="1.1"
   xml:space="preserve"
   style="clip-rule:evenodd;fill-rule:evenodd;stroke-linejoin:round;stroke-miterlimit:2"
   id="svg9"
   sodipodi:docname="logo.svg"
   inkscape:version="1.4.1 (93de688d07, 2025-03-30)"
   xmlns:inkscape="http://www.inkscape.org/namespaces/inkscape"
   xmlns:sodipodi="http://sodipodi.sourceforge.net/DTD/sodipodi-0.dtd"
   xmlns="http://www.w3.org/2000/svg"
   xmlns:svg="http://www.w3.org/2000/svg"><defs
   id="defs9" /><sodipodi:namedview
   id="namedview9"
   pagecolor="#ffffff"
   bordercolor="#eeeeee"
   borderopacity="1"
   inkscape:showpageshadow="0"
   inkscape:pageopacity="0"
   inkscape:pagecheckerboard="0"
   inkscape:deskcolor="#d1d1d1"
   inkscape:zoom="3.2727169"
   inkscape:cx="430.37636"
   inkscape:cy="41.708465"
   inkscape:window-width="1536"
   inkscape:window-height="796"
   inkscape:window-x="0"
   inkscape:window-y="0"
   inkscape:window-maximized="1"
   inkscape:current-layer="svg9" />
    <g
   transform="translate(-1008.4618,816.62759)"
   id="g7">
        
        
        <g
   transform="translate(-128.815,-927.891)"
   id="g6">
            <g
   transform="matrix(91.6667,0,0,91.6667,1945.45,359.928)"
   id="g5">
            </g>
            
        </g>
    <text
   xml:space="preserve"
   style="font-size:92.6667px;line-height:1.3;font-family:'Noto Sans Mono';-inkscape-font-specification:'Noto Sans Mono';text-align:start;writing-mode:lr-tb;direction:ltr;text-anchor:start;fill:#0000ff;stroke:#000000;stroke-width:0.00377953"
   x="1500.7614"
   y="-425.98038"
   id="text2"><tspan
     sodipodi:role="line"
     x="1500.7614"
     y="-425.98038"
     style="font-style:normal;font-variant:normal;font-weight:normal;font-stretch:normal;font-family:Ubuntu;-inkscape-font-specification:Ubuntu"
     id="tspan5" /></text></g>
    <g
   transform="matrix(1.22798,-1.22798,1.25822,1.25822,-2767.38,1263.37)"
   id="g8">
        <ellipse
   cx="1521.6801"
   cy="859.802"
   rx="105.418"
   ry="102.884"
   style="fill:none"
   id="ellipse7" />
    </g>
    <g
   transform="matrix(1.2356841,-1.2356841,1.2661139,1.2661139,-2694.557,1269.5252)"
   id="g9">
        <path
   d="m 1521.48,820.142 c -22.34,0.107 -40.44,17.837 -40.44,39.66 0,21.889 18.21,39.66 40.64,39.66 22.43,0 40.64,-17.771 40.64,-39.66 0,-13.516 -6.95,-25.462 -17.54,-32.624 l 76.9001,-1.2e-4 c 3.51,10.253 5.4199,21.22312 5.4199,32.62412 0,56.783 -47.24,102.883 -105.42,102.883 -58.18,0 -105.42,-46.1 -105.42,-102.883 0,-56.783 47.24,-102.884 105.42,-102.884 h 0.06 v 0.044 h 189.63 l -48.4284,-47.26257 45.8083,-44.70742 126.6302,123.58232 -126.6302,123.5807 -45.8085,-44.7075 48.4286,-47.26253 h -189.89 z"
   style="fill:#ed1b2d"
   id="path8"
   sodipodi:nodetypes="csssccssssccccccccccc" />
    </g>
</svg>
